SolveFromPy_states
version=1
nRows=4
nColumns=195
inDegrees=yes

# SIMM Motion File Header:
name SolveFromPy_states
datacolumns 195
datarows 4
otherdata 1
range 0.36732136 0.36750187
endheader
time	/jointset/ground_platform/platform_rx/value	/jointset/ground_platform/platform_rx/speed	/jointset/ground_platform/platform_ry/value	/jointset/ground_platform/platform_ry/speed	/jointset/ground_platform/platform_rz/value	/jointset/ground_platform/platform_rz/speed	/jointset/ground_platform/platform_ty/value	/jointset/ground_platform/platform_ty/speed	/jointset/ground_pelvis/pelvis_tilt/value	/jointset/ground_pelvis/pelvis_tilt/speed	/jointset/ground_pelvis/pelvis_list/value	/jointset/ground_pelvis/pelvis_list/speed	/jointset/ground_pelvis/pelvis_rotation/value	/jointset/ground_pelvis/pelvis_rotation/speed	/jointset/ground_pelvis/pelvis_tx/value	/jointset/ground_pelvis/pelvis_tx/speed	/jointset/ground_pelvis/pelvis_ty/value	/jointset/ground_pelvis/pelvis_ty/speed	/jointset/ground_pelvis/pelvis_tz/value	/jointset/ground_pelvis/pelvis_tz/speed	/jointset/hip_r/hip_flexion_r/value	/jointset/hip_r/hip_flexion_r/speed	/jointset/hip_r/hip_adduction_r/value	/jointset/hip_r/hip_adduction_r/speed	/jointset/hip_r/hip_rotation_r/value	/jointset/hip_r/hip_rotation_r/speed	/jointset/knee_r/knee_angle_r/value	/jointset/knee_r/knee_angle_r/speed	/jointset/ankle_r/ankle_angle_r/value	/jointset/ankle_r/ankle_angle_r/speed	/jointset/subtalar_r/subtalar_angle_r/value	/jointset/subtalar_r/subtalar_angle_r/speed	/jointset/mtp_r/mtp_angle_r/value	/jointset/mtp_r/mtp_angle_r/speed	/jointset/hip_l/hip_flexion_l/value	/jointset/hip_l/hip_flexion_l/speed	/jointset/hip_l/hip_adduction_l/value	/jointset/hip_l/hip_adduction_l/speed	/jointset/hip_l/hip_rotation_l/value	/jointset/hip_l/hip_rotation_l/speed	/jointset/knee_l/knee_angle_l/value	/jointset/knee_l/knee_angle_l/speed	/jointset/ankle_l/ankle_angle_l/value	/jointset/ankle_l/ankle_angle_l/speed	/jointset/subtalar_l/subtalar_angle_l/value	/jointset/subtalar_l/subtalar_angle_l/speed	/jointset/mtp_l/mtp_angle_l/value	/jointset/mtp_l/mtp_angle_l/speed	/jointset/back/lumbar_extension/value	/jointset/back/lumbar_extension/speed	/jointset/back/lumbar_bending/value	/jointset/back/lumbar_bending/speed	/jointset/back/lumbar_rotation/value	/jointset/back/lumbar_rotation/speed	/forceset/glut_med1_r/activation	/forceset/glut_med1_r/fiber_length	/forceset/glut_med2_r/activation	/forceset/glut_med2_r/fiber_length	/forceset/glut_med3_r/activation	/forceset/glut_med3_r/fiber_length	/forceset/bifemlh_r/activation	/forceset/bifemlh_r/fiber_length	/forceset/bifemsh_r/activation	/forceset/bifemsh_r/fiber_length	/forceset/sar_r/activation	/forceset/sar_r/fiber_length	/forceset/add_mag2_r/activation	/forceset/add_mag2_r/fiber_length	/forceset/tfl_r/activation	/forceset/tfl_r/fiber_length	/forceset/pect_r/activation	/forceset/pect_r/fiber_length	/forceset/grac_r/activation	/forceset/grac_r/fiber_length	/forceset/glut_max1_r/activation	/forceset/glut_max1_r/fiber_length	/forceset/glut_max2_r/activation	/forceset/glut_max2_r/fiber_length	/forceset/glut_max3_r/activation	/forceset/glut_max3_r/fiber_length	/forceset/iliacus_r/activation	/forceset/iliacus_r/fiber_length	/forceset/psoas_r/activation	/forceset/psoas_r/fiber_length	/forceset/quad_fem_r/activation	/forceset/quad_fem_r/fiber_length	/forceset/gem_r/activation	/forceset/gem_r/fiber_length	/forceset/peri_r/activation	/forceset/peri_r/fiber_length	/forceset/rect_fem_r/activation	/forceset/rect_fem_r/fiber_length	/forceset/vas_int_r/activation	/forceset/vas_int_r/fiber_length	/forceset/med_gas_r/activation	/forceset/med_gas_r/fiber_length	/forceset/lat_gas_r/activation	/forceset/lat_gas_r/fiber_length	/forceset/soleus_r/activation	/forceset/soleus_r/fiber_length	/forceset/tib_post_r/activation	/forceset/tib_post_r/fiber_length	/forceset/flex_dig_r/activation	/forceset/flex_dig_r/fiber_length	/forceset/flex_hal_r/activation	/forceset/flex_hal_r/fiber_length	/forceset/tib_ant_r/activation	/forceset/tib_ant_r/fiber_length	/forceset/per_brev_r/activation	/forceset/per_brev_r/fiber_length	/forceset/per_long_r/activation	/forceset/per_long_r/fiber_length	/forceset/per_tert_r/activation	/forceset/per_tert_r/fiber_length	/forceset/ext_dig_r/activation	/forceset/ext_dig_r/fiber_length	/forceset/ext_hal_r/activation	/forceset/ext_hal_r/fiber_length	/forceset/glut_med1_l/activation	/forceset/glut_med1_l/fiber_length	/forceset/glut_med2_l/activation	/forceset/glut_med2_l/fiber_length	/forceset/glut_med3_l/activation	/forceset/glut_med3_l/fiber_length	/forceset/bifemlh_l/activation	/forceset/bifemlh_l/fiber_length	/forceset/bifemsh_l/activation	/forceset/bifemsh_l/fiber_length	/forceset/sar_l/activation	/forceset/sar_l/fiber_length	/forceset/add_mag2_l/activation	/forceset/add_mag2_l/fiber_length	/forceset/tfl_l/activation	/forceset/tfl_l/fiber_length	/forceset/pect_l/activation	/forceset/pect_l/fiber_length	/forceset/grac_l/activation	/forceset/grac_l/fiber_length	/forceset/glut_max1_l/activation	/forceset/glut_max1_l/fiber_length	/forceset/glut_max2_l/activation	/forceset/glut_max2_l/fiber_length	/forceset/glut_max3_l/activation	/forceset/glut_max3_l/fiber_length	/forceset/iliacus_l/activation	/forceset/iliacus_l/fiber_length	/forceset/psoas_l/activation	/forceset/psoas_l/fiber_length	/forceset/quad_fem_l/activation	/forceset/quad_fem_l/fiber_length	/forceset/gem_l/activation	/forceset/gem_l/fiber_length	/forceset/peri_l/activation	/forceset/peri_l/fiber_length	/forceset/rect_fem_l/activation	/forceset/rect_fem_l/fiber_length	/forceset/vas_int_l/activation	/forceset/vas_int_l/fiber_length	/forceset/med_gas_l/activation	/forceset/med_gas_l/fiber_length	/forceset/lat_gas_l/activation	/forceset/lat_gas_l/fiber_length	/forceset/soleus_l/activation	/forceset/soleus_l/fiber_length	/forceset/tib_post_l/activation	/forceset/tib_post_l/fiber_length	/forceset/flex_dig_l/activation	/forceset/flex_dig_l/fiber_length	/forceset/flex_hal_l/activation	/forceset/flex_hal_l/fiber_length	/forceset/tib_ant_l/activation	/forceset/tib_ant_l/fiber_length	/forceset/per_brev_l/activation	/forceset/per_brev_l/fiber_length	/forceset/per_long_l/activation	/forceset/per_long_l/fiber_length	/forceset/per_tert_l/activation	/forceset/per_tert_l/fiber_length	/forceset/ext_dig_l/activation	/forceset/ext_dig_l/fiber_length	/forceset/ext_hal_l/activation	/forceset/ext_hal_l/fiber_length	/forceset/ercspn_r/activation	/forceset/ercspn_r/fiber_length	/forceset/ercspn_l/activation	/forceset/ercspn_l/fiber_length	/forceset/intobl_r/activation	/forceset/intobl_r/fiber_length	/forceset/intobl_l/activation	/forceset/intobl_l/fiber_length	/forceset/extobl_r/activation	/forceset/extobl_r/fiber_length	/forceset/extobl_l/activation	/forceset/extobl_l/fiber_length
      0.36732136	     20.00000000	      0.00000000	     -0.00000000	     -0.00000000	     -0.00000000	     -0.00000000	      0.25000000	      0.00000000	     -6.25698373	     23.00608171	     -2.24415061	    -24.94347790	     -2.33883626	    -43.34518917	      0.04422837	     -0.15072423	      1.02374783	     -3.47381983	      0.00594622	      0.12800716	     38.32573673	    805.11997579	      2.58632124	      3.29100826	      4.96056024	   -219.44927085	    -70.05024822	  -1947.82687722	    258.91727400	   2926.74697932	     14.84305137	   -619.10787525	     -0.00000000	     -0.00000000	    -19.99999998	     -0.00000000	     10.00000028	      0.00000000	      4.99999985	     -0.00000000	   -119.99999986	      0.00000000	     11.49999977	      0.00000000	     -0.03000064	      0.00000000	      0.00000000	     -0.00000000	     -7.77476304	    -47.77609359	      1.79525245	     13.77468545	      4.54377548	     42.82682109	     -0.02185058	      0.04680031	     -0.02185058	      0.09060323	     -0.02185058	      0.07685208	     -0.02185058	      0.09645517	     -0.02185058	      0.14925069	     -0.02185058	      0.41981697	     -0.02185058	      0.09135235	     -0.02185058	      0.09301849	     -0.02185058	      0.05722895	     -0.02185058	      0.28453851	     -0.02185058	      0.10337556	     -0.02185058	      0.11683096	     -0.02185058	      0.13797324	     -0.02185058	      0.08885034	     -0.02185058	      0.08329430	     -0.02185058	      0.05599553	     -0.02185058	      0.02942087	     -0.02185058	      0.02972030	     -0.02185058	      0.12264955	     -0.02185058	      0.11708109	     -0.02185058	      0.08428880	     -0.02185058	      0.06003634	     -0.02185058	      0.07465724	     -0.02185058	      0.02924775	     -0.02185058	      0.03103978	     -0.02185058	      0.04000924	     -0.02185058	      0.11810176	     -0.02185058	      0.04509049	     -0.02185058	      0.04585874	     -0.02185058	      0.11443914	     -0.02185058	      0.13983956	     -0.02185058	      0.14646822	     -0.02185058	      0.04646954	     -0.02185058	      0.07924345	     -0.02185058	      0.06066849	     -0.02185058	      0.02207317	     -0.02185058	      0.12238178	     -0.02185058	      0.45556126	     -0.02185058	      0.05828642	     -0.02185058	      0.13391495	     -0.02185058	      0.07307389	     -0.02185058	      0.24301553	     -0.02185058	      0.06638073	     -0.02185058	      0.06554424	     -0.02185058	      0.05770037	     -0.02185058	      0.11895704	     -0.02185058	      0.11276383	     -0.02185058	      0.04385542	     -0.02185058	      0.02477863	     -0.02185058	      0.02332647	     -0.02185058	      0.18252185	     -0.02185058	      0.13945923	     -0.02185058	      0.06773760	     -0.02185058	      0.04190386	     -0.02185058	      0.08593352	     -0.02185058	      0.03561976	     -0.02185058	      0.03422854	     -0.02185058	      0.04262448	     -0.02185058	      0.07211219	     -0.02185058	      0.05030461	     -0.02185058	      0.05155982	     -0.02185058	      0.07464108	     -0.02185058	      0.08888363	     -0.02185058	      0.09641129	     -0.02185058	      0.12314434	     -0.02185058	      0.12706253	     -0.02185058	      0.09180002	     -0.02185058	      0.09192012	     -0.02185058	      0.12034815	     -0.02185058	      0.12895416
      0.36742031	     20.00000000	      0.00000000	     -0.00000000	     -0.00000000	     -0.00000000	     -0.00000000	      0.25000000	      0.00000000	     -6.25470842	     22.98364993	     -2.24659256	    -24.41453066	     -2.34309106	    -42.65491866	      0.04421353	     -0.14931209	      1.02340400	     -3.47599071	      0.00595885	      0.12721759	     38.40537312	    804.52889622	      2.58658522	      2.04435208	      4.93878001	   -220.78122355	    -70.24307797	  -1949.74475113	    259.20751051	   2939.69942407	     14.78139274	   -627.16960836	     -0.00000000	     -0.00000000	    -19.99999998	     -0.00000000	     10.00000028	      0.00000000	      4.99999985	     -0.00000000	   -119.99999986	      0.00000000	     11.49999977	      0.00000000	     -0.03000064	      0.00000000	      0.00000000	     -0.00000000	     -7.77947691	    -47.50293662	      1.79658698	     13.19978158	      4.54797215	     41.99831278	     -0.02186332	      0.04681406	     -0.02186332	      0.09062566	     -0.02186332	      0.07687587	     -0.02186332	      0.09644949	     -0.02186332	      0.14920661	     -0.02186332	      0.41968448	     -0.02186332	      0.09141648	     -0.02186332	      0.09299429	     -0.02186332	      0.05720347	     -0.02186332	      0.28445151	     -0.02186332	      0.10341711	     -0.02186332	      0.11688367	     -0.02186332	      0.13805797	     -0.02186332	      0.08882486	     -0.02186332	      0.08326882	     -0.02186332	      0.05601328	     -0.02186332	      0.02941736	     -0.02186332	      0.02972720	     -0.02186332	      0.12269221	     -0.02186332	      0.11719202	     -0.02186332	      0.08426587	     -0.02186332	      0.06002003	     -0.02186332	      0.07463685	     -0.02186332	      0.02923985	     -0.02186332	      0.03103112	     -0.02186332	      0.03999829	     -0.02186332	      0.11810943	     -0.02186332	      0.04507775	     -0.02186332	      0.04584626	     -0.02186332	      0.11455358	     -0.02186332	      0.13979564	     -0.02186332	      0.14643260	     -0.02186332	      0.04646954	     -0.02186332	      0.07924345	     -0.02186332	      0.06066849	     -0.02186332	      0.02207317	     -0.02186332	      0.12238178	     -0.02186332	      0.45556126	     -0.02186332	      0.05828642	     -0.02186332	      0.13391495	     -0.02186332	      0.07307389	     -0.02186332	      0.24301553	     -0.02186332	      0.06638073	     -0.02186332	      0.06554424	     -0.02186332	      0.05770037	     -0.02186332	      0.11895704	     -0.02186332	      0.11276383	     -0.02186332	      0.04385542	     -0.02186332	      0.02477863	     -0.02186332	      0.02332647	     -0.02186332	      0.18252185	     -0.02186332	      0.13945923	     -0.02186332	      0.06773760	     -0.02186332	      0.04190386	     -0.02186332	      0.08593352	     -0.02186332	      0.03561976	     -0.02186332	      0.03422855	     -0.02186332	      0.04262449	     -0.02186332	      0.07211219	     -0.02186332	      0.05030461	     -0.02186332	      0.05155982	     -0.02186332	      0.07464108	     -0.02186332	      0.08888363	     -0.02186332	      0.09641129	     -0.02186332	      0.12314556	     -0.02186332	      0.12706746	     -0.02186332	      0.09179524	     -0.02186332	      0.09191628	     -0.02186332	      0.12033725	     -0.02186332	      0.12895478
      0.36745123	     20.00000000	      0.00000000	     -0.00000000	     -0.00000000	     -0.00000000	     -0.00000000	      0.25000000	      0.00000000	     -6.25399796	     22.97672940	     -2.24734482	    -24.24937443	     -2.34440646	    -42.43891418	      0.04420892	     -0.14886941	      1.02329652	     -3.47666847	      0.00596278	      0.12697010	     38.43024330	    804.33986842	      2.58664241	      1.65545246	      4.93194794	   -221.19008572	    -70.30336616	  -1950.33971768	    259.29845852	   2943.79375067	     14.76196439	   -629.66577334	     -0.00000000	     -0.00000000	    -19.99999998	     -0.00000000	     10.00000028	      0.00000000	      4.99999985	     -0.00000000	   -119.99999986	      0.00000000	     11.49999977	      0.00000000	     -0.03000064	      0.00000000	      0.00000000	     -0.00000000	     -7.78094420	    -47.41748238	      1.79699229	     13.02041525	      4.54926658	     41.73913099	     -0.02186730	      0.04681836	     -0.02186730	      0.09063266	     -0.02186730	      0.07688329	     -0.02186730	      0.09644772	     -0.02186730	      0.14919284	     -0.02186730	      0.41964308	     -0.02186730	      0.09143655	     -0.02186730	      0.09298672	     -0.02186730	      0.05719551	     -0.02186730	      0.28442434	     -0.02186730	      0.10343007	     -0.02186730	      0.11690010	     -0.02186730	      0.13808443	     -0.02186730	      0.08881689	     -0.02186730	      0.08326086	     -0.02186730	      0.05601883	     -0.02186730	      0.02941625	     -0.02186730	      0.02972935	     -0.02186730	      0.12270550	     -0.02186730	      0.11722665	     -0.02186730	      0.08425871	     -0.02186730	      0.06001493	     -0.02186730	      0.07463048	     -0.02186730	      0.02923738	     -0.02186730	      0.03102841	     -0.02186730	      0.03999486	     -0.02186730	      0.11811176	     -0.02186730	      0.04507377	     -0.02186730	      0.04584235	     -0.02186730	      0.11441577	     -0.02186730	      0.13978176	     -0.02186730	      0.14642137	     -0.02186730	      0.04646954	     -0.02186730	      0.07924345	     -0.02186730	      0.06066849	     -0.02186730	      0.02207317	     -0.02186730	      0.12238178	     -0.02186730	      0.45556126	     -0.02186730	      0.05828642	     -0.02186730	      0.13391495	     -0.02186730	      0.07307389	     -0.02186730	      0.24301553	     -0.02186730	      0.06638073	     -0.02186730	      0.06554424	     -0.02186730	      0.05770037	     -0.02186730	      0.11895704	     -0.02186730	      0.11276383	     -0.02186730	      0.04385542	     -0.02186730	      0.02477863	     -0.02186730	      0.02332647	     -0.02186730	      0.18252185	     -0.02186730	      0.13945923	     -0.02186730	      0.06773760	     -0.02186730	      0.04190386	     -0.02186730	      0.08593352	     -0.02186730	      0.03561976	     -0.02186730	      0.03422855	     -0.02186730	      0.04262449	     -0.02186730	      0.07211219	     -0.02186730	      0.05030461	     -0.02186730	      0.05155982	     -0.02186730	      0.07464108	     -0.02186730	      0.08888363	     -0.02186730	      0.09641129	     -0.02186730	      0.12314595	     -0.02186730	      0.12706899	     -0.02186730	      0.09179376	     -0.02186730	      0.09191507	     -0.02186730	      0.12033386	     -0.02186730	      0.12895496
      0.36750187	     20.00000000	      0.00000000	     -0.00000000	     -0.00000000	     -0.00000000	     -0.00000000	      0.25000000	      0.00000000	     -6.25283465	     22.96549188	     -2.24856601	    -23.97895297	     -2.34654669	    -42.08470325	      0.04420140	     -0.14814299	      1.02312043	     -3.47777810	      0.00596920	      0.12656324	     38.47096883	    804.02632225	      2.58671010	      1.01777434	      4.92072948	   -221.85738102	    -70.40216003	  -1951.31017983	    259.44770906	   2950.54367038	     14.72997298	   -633.76282486	     -0.00000000	     -0.00000000	    -19.99999998	     -0.00000000	     10.00000028	      0.00000000	      4.99999985	     -0.00000000	   -119.99999986	      0.00000000	     11.49999977	      0.00000000	     -0.03000064	      0.00000000	      0.00000000	     -0.00000000	     -7.78334198	    -47.27743222	      1.79764424	     12.72694619	      4.55136958	     41.31422383	     -0.02187382	      0.04682541	     -0.02187382	      0.09064412	     -0.02187382	      0.07689542	     -0.02187382	      0.09644485	     -0.02187382	      0.14917028	     -0.02187382	      0.41957527	     -0.02187382	      0.09146944	     -0.02187382	      0.09297434	     -0.02187382	      0.05718247	     -0.02187382	      0.28437986	     -0.02187382	      0.10345128	     -0.02187382	      0.11692700	     -0.02187382	      0.13812775	     -0.02187382	      0.08880385	     -0.02187382	      0.08324782	     -0.02187382	      0.05602790	     -0.02187382	      0.02941441	     -0.02187382	      0.02973285	     -0.02187382	      0.12272725	     -0.02187382	      0.11728335	     -0.02187382	      0.08424697	     -0.02187382	      0.06000659	     -0.02187382	      0.07462005	     -0.02187382	      0.02923334	     -0.02187382	      0.03102398	     -0.02187382	      0.03998926	     -0.02187382	      0.11811551	     -0.02187382	      0.04506725	     -0.02187382	      0.04583597	     -0.02187382	      0.11438768	     -0.02187382	      0.13975888	     -0.02187382	      0.14640285	     -0.02187382	      0.04646954	     -0.02187382	      0.07924345	     -0.02187382	      0.06066849	     -0.02187382	      0.02207317	     -0.02187382	      0.12238178	     -0.02187382	      0.45556126	     -0.02187382	      0.05828642	     -0.02187382	      0.13391495	     -0.02187382	      0.07307389	     -0.02187382	      0.24301553	     -0.02187382	      0.06638073	     -0.02187382	      0.06554424	     -0.02187382	      0.05770037	     -0.02187382	      0.11895704	     -0.02187382	      0.11276383	     -0.02187382	      0.04385542	     -0.02187382	      0.02477863	     -0.02187382	      0.02332647	     -0.02187382	      0.18252185	     -0.02187382	      0.13945923	     -0.02187382	      0.06773760	     -0.02187382	      0.04190386	     -0.02187382	      0.08593352	     -0.02187382	      0.03561976	     -0.02187382	      0.03422856	     -0.02187382	      0.04262450	     -0.02187382	      0.07211219	     -0.02187382	      0.05030461	     -0.02187382	      0.05155982	     -0.02187382	      0.07464108	     -0.02187382	      0.08888363	     -0.02187382	      0.09641129	     -0.02187382	      0.12314660	     -0.02187382	      0.12707147	     -0.02187382	      0.09179134	     -0.02187382	      0.09191308	     -0.02187382	      0.12032834	     -0.02187382	      0.12895525
